<?xml version="1.0" encoding="UTF-8"?>
<svg version="1.1" xmlns="http://www.w3.org/2000/svg" width="500" height="500">
<path d="M0 0 C14.17892787 -0.52534135 26.79315131 2.65680783 39.44140625 9.1953125 C39.44140625 9.8553125 39.44140625 10.5153125 39.44140625 11.1953125 C40.14265625 11.4221875 40.84390625 11.6490625 41.56640625 11.8828125 C45.1826916 13.53372538 47.52910601 15.486196 50.44140625 18.1953125 C50.44140625 18.8553125 50.44140625 19.5153125 50.44140625 20.1953125 C51.10140625 20.1953125 51.76140625 20.1953125 52.44140625 20.1953125 C63.77290858 33.71318353 70.23975126 50.25906263 74.44140625 67.1953125 C74.69784912 68.19679321 74.69784912 68.19679321 74.95947266 69.21850586 C76.59160871 75.9900846 77.31625154 82.84184538 78.06640625 89.7578125 C78.2675 91.55702148 78.2675 91.55702148 78.47265625 93.39257812 C78.79993168 96.32636858 79.12273947 99.26057666 79.44140625 102.1953125 C81.67756334 102.42365432 81.67756334 102.42365432 83.53515625 100.2265625 C84.32921875 99.39125 85.12328125 98.5559375 85.94140625 97.6953125 C87.40296327 96.15783044 88.89598379 94.64847093 90.44140625 93.1953125 C91.10140625 93.1953125 91.76140625 93.1953125 92.44140625 93.1953125 C92.44140625 92.5353125 92.44140625 91.8753125 92.44140625 91.1953125 C93.10140625 91.1953125 93.76140625 91.1953125 94.44140625 91.1953125 C94.44140625 90.5353125 94.44140625 89.8753125 94.44140625 89.1953125 C95.10140625 89.1953125 95.76140625 89.1953125 96.44140625 89.1953125 C96.44140625 88.5353125 96.44140625 87.8753125 96.44140625 87.1953125 C98.35546875 85.41796875 98.35546875 85.41796875 101.06640625 83.2578125 C102.07316406 82.45472656 103.07992187 81.65164062 104.1171875 80.82421875 C104.65939941 80.39641113 105.20161133 79.96860352 105.76025391 79.52783203 C107.44970634 78.18873366 109.12408718 76.83249274 110.796875 75.47265625 C118.67547072 69.11645661 126.84530866 63.53122574 135.44140625 58.1953125 C136.43140625 57.5353125 137.42140625 56.8753125 138.44140625 56.1953125 C139.43140625 56.1953125 140.42140625 56.1953125 141.44140625 56.1953125 C141.44140625 55.5353125 141.44140625 54.8753125 141.44140625 54.1953125 C181.55487043 33.60452541 218.15579905 30.65515472 261.44140625 44.1953125 C262.10140625 44.5253125 262.76140625 44.8553125 263.44140625 45.1953125 C263.44140625 46.1853125 263.44140625 47.1753125 263.44140625 48.1953125 C262.62542969 48.51242188 261.80945313 48.82953125 260.96875 49.15625 C237.5953243 58.36319244 214.93721754 68.67197383 193.16796875 81.234375 C192.21817139 81.78125977 191.26837402 82.32814453 190.28979492 82.89160156 C188.36561988 84.00127426 186.44385559 85.11513887 184.5246582 86.23339844 C183.6399585 86.74418945 182.75525879 87.25498047 181.84375 87.78125 C181.04445068 88.2457959 180.24515137 88.7103418 179.42163086 89.18896484 C177.44140625 90.1953125 177.44140625 90.1953125 175.44140625 90.1953125 C175.44140625 90.8553125 175.44140625 91.5153125 175.44140625 92.1953125 C173.703125 93.4296875 173.703125 93.4296875 171.12890625 94.9453125 C164.42472265 99.06422269 158.1838555 103.7475353 151.9050293 108.48339844 C151.11265869 109.07668945 150.32028809 109.66998047 149.50390625 110.28125 C148.79363281 110.8179834 148.08335937 111.3547168 147.3515625 111.90771484 C145.44140625 113.1953125 145.44140625 113.1953125 142.44140625 114.1953125 C142.44140625 114.8553125 142.44140625 115.5153125 142.44140625 116.1953125 C140.76171875 117.703125 140.76171875 117.703125 138.56640625 119.3203125 C137.84710938 119.85914063 137.1278125 120.39796875 136.38671875 120.953125 C134.44140625 122.1953125 134.44140625 122.1953125 132.44140625 122.1953125 C132.44140625 122.8553125 132.44140625 123.5153125 132.44140625 124.1953125 C130.74866341 125.75964037 128.98570773 127.24859822 127.19140625 128.6953125 C126.216875 129.489375 125.24234375 130.2834375 124.23828125 131.1015625 C121.99245863 132.78279284 119.99482595 134.07667149 117.44140625 135.1953125 C117.44140625 135.8553125 117.44140625 136.5153125 117.44140625 137.1953125 C116.78140625 137.1953125 116.12140625 137.1953125 115.44140625 137.1953125 C115.44140625 137.8553125 115.44140625 138.5153125 115.44140625 139.1953125 C114.78140625 139.1953125 114.12140625 139.1953125 113.44140625 139.1953125 C113.44140625 139.8553125 113.44140625 140.5153125 113.44140625 141.1953125 C112.078125 142.53515625 112.078125 142.53515625 110.12890625 144.1328125 C106.42565905 147.27858162 102.93902533 150.57607167 99.50390625 154.0078125 C98.77723755 154.72795532 98.77723755 154.72795532 98.03588867 155.46264648 C95.40807972 158.08002374 95.40807972 158.08002374 93.44140625 161.1953125 C92.78140625 161.1953125 92.12140625 161.1953125 91.44140625 161.1953125 C91.44140625 161.8553125 91.44140625 162.5153125 91.44140625 163.1953125 C90.78140625 163.1953125 90.12140625 163.1953125 89.44140625 163.1953125 C89.18746094 163.77925781 88.93351562 164.36320313 88.671875 164.96484375 C87.30914072 167.43507001 85.80858642 168.95730672 83.75390625 170.8828125 C80.02799641 174.48656136 76.92974993 178.31833702 73.88671875 182.5078125 C73.40976562 183.0646875 72.9328125 183.6215625 72.44140625 184.1953125 C71.78140625 184.1953125 71.12140625 184.1953125 70.44140625 184.1953125 C70.22355469 184.72253906 70.00570312 185.24976563 69.78125 185.79296875 C67.93971097 189.09485359 65.48398398 191.80351913 63.00390625 194.6328125 C60.31944996 197.69824288 57.80036119 200.5889147 55.71875 204.10546875 C55.29722656 204.79511719 54.87570312 205.48476563 54.44140625 206.1953125 C53.78140625 206.1953125 53.12140625 206.1953125 52.44140625 206.1953125 C51.78140625 207.8453125 51.12140625 209.4953125 50.44140625 211.1953125 C49.78140625 211.1953125 49.12140625 211.1953125 48.44140625 211.1953125 C48.18230469 211.73671875 47.92320312 212.278125 47.65625 212.8359375 C46.22245632 215.62054002 44.64487585 218.27741353 43.00390625 220.9453125 C42.40707031 221.93015625 41.81023437 222.915 41.1953125 223.9296875 C40.61652344 224.67734375 40.03773438 225.425 39.44140625 226.1953125 C38.45140625 226.1953125 37.46140625 226.1953125 36.44140625 226.1953125 C36.5298304 225.09576988 36.5298304 225.09576988 36.62004089 223.97401428 C38.11347438 204.92784193 38.79102834 186.00090087 38.75708008 166.8996582 C38.75243637 164.05314381 38.7594498 161.20705562 38.77758789 158.3605957 C38.97975047 126.29546408 38.62485378 90.96106512 25.44140625 61.1953125 C24.76840283 59.51032968 24.10102308 57.82308062 23.44140625 56.1328125 C22.29865595 53.2407752 21.10571894 50.53592671 19.69140625 47.7578125 C18.44140625 45.1953125 18.44140625 45.1953125 18.44140625 42.1953125 C17.78140625 42.1953125 17.12140625 42.1953125 16.44140625 42.1953125 C15.62573451 40.75960984 14.81398532 39.32167816 14.00390625 37.8828125 C13.32521484 36.68205078 13.32521484 36.68205078 12.6328125 35.45703125 C11.44140625 33.1953125 11.44140625 33.1953125 10.44140625 30.1953125 C9.78140625 30.1953125 9.12140625 30.1953125 8.44140625 30.1953125 C7.388618 28.90325419 6.39964878 27.55896533 5.44140625 26.1953125 C-2.01906179 16.42163979 -11.63555602 11.23187168 -22.55859375 6.1953125 C-22.55859375 5.5353125 -22.55859375 4.8753125 -22.55859375 4.1953125 C-14.90975191 1.65634412 -8.01740856 0.4400334 0 0 Z " fill="#D8A002" transform="translate(216.55859375,135.8046875)"/>
<path d="M0 0 C0 0.66 0 1.32 0 2 C0.598125 2.26554687 1.19625 2.53109375 1.8125 2.8046875 C7.71102051 6.02780764 11.87371347 12.76222103 14 19 C16.70737553 29.92285991 16.46162565 39.63615769 10.5625 49.4375 C9.7244743 50.63644532 8.87194273 51.82549039 8 53 C7.13375 54.299375 7.13375 54.299375 6.25 55.625 C-1.74872741 64.06810116 -10.69586438 66.62511795 -22 67 C-32.33846127 66.90307693 -40.66520264 62.14498745 -48 55 C-53.51624591 47.57835571 -56.38840187 40.42682875 -56.3125 31.125 C-56.30758545 30.41537109 -56.3026709 29.70574219 -56.29760742 28.97460938 C-56.17542088 23.52571613 -55.49294127 19.81395555 -53 15 C-52.6596875 14.33871094 -52.319375 13.67742187 -51.96875 12.99609375 C-47.00191734 4.15311803 -39.15367711 -1.83595661 -29.5078125 -4.75390625 C-19.0624617 -7.16087839 -9.17949996 -5.39970586 0 0 Z " fill="#D8A002" transform="translate(355,106)"/>
<path d="M0 0 C2.87388705 2.28437176 4.80517454 4.51509241 6 8 C6.33217754 12.56744115 6.00215699 15.8705512 4 20 C3.34 20 2.68 20 2 20 C1.67 20.99 1.34 21.98 1 23 C-2.50886009 25.11034067 -6.05600893 26.01887982 -10.125 25.9375 C-14.60517276 24.4765741 -17.80514561 22.39399679 -20.875 18.8125 C-22.47138096 14.82154759 -22.578556 11.24274402 -22 7 C-20.6875 4.125 -20.6875 4.125 -19 2 C-18.5875 1.443125 -18.175 0.88625 -17.75 0.3125 C-11.7765305 -4.16760212 -6.23285864 -3.0560334 0 0 Z " fill="#D8A20B" transform="translate(220,191)"/>
<path d="M0 0 C0.99 0.66 1.98 1.32 3 2 C3 2.66 3 3.32 3 4 C3.66 4 4.32 4 5 4 C7.34728069 7.66762608 7.4430704 10.71698615 7 15 C4.93853841 18.82842867 2.85837944 21.90545116 -1 24 C-4.99945902 25.03689678 -7.2703111 25.25753726 -11.1875 23.875 C-14.43124896 21.71250069 -16.13011414 20.45209698 -18 17 C-18.86488662 11.6328531 -19.02822734 7.48185704 -15.875 2.9375 C-10.37207115 -0.77099553 -6.50653214 -1.47317709 0 0 Z " fill="#D8A313" transform="translate(180,264)"/>
<path d="M0 0 C3.05737179 2.53325091 4.87700715 4.71560993 5.47265625 8.73828125 C5.66801499 13.24852005 5.08491346 16.19073317 2.1875 19.8125 C-1.76937154 23.40250928 -5.00766164 23.37528547 -10.1796875 23.23046875 C-12.8125 22.8125 -12.8125 22.8125 -15.875 20.625 C-18.64894549 16.59830493 -19.84004947 14.32772089 -19.75 9.375 C-18.56732633 4.88084005 -17.08025963 3.08025963 -13.8125 -0.1875 C-9.00385086 -1.79038305 -4.64178589 -1.95986515 0 0 Z " fill="#D8A20B" transform="translate(233.8125,278.1875)"/>
<path d="M0 0 C2.90720726 2.50155043 3.92519819 3.58569113 4.6875 7.3125 C4.74958734 11.67635338 4.1756721 14.57236811 1.75 18.25 C-1.12980249 21.12980249 -2.72597722 21.46709699 -6.6875 21.5 C-7.45835937 21.51417969 -8.22921875 21.52835938 -9.0234375 21.54296875 C-12.70378501 21.17242182 -14.72374698 20.02741438 -17.0625 17.1875 C-18.66914835 13.49220881 -19.01253748 10.24347971 -18.3125 6.3125 C-16.68859951 3.18069191 -15.30983974 1.06910256 -12.5 -1.0625 C-7.76488175 -2.41539093 -4.39556344 -2.2392493 0 0 Z " fill="#D8A105" transform="translate(199.3125,226.6875)"/>
<path d="M0 0 C3.67080764 2.52368025 4.75864984 4.17035883 6 8.4375 C6 12.58956112 5.33117811 14.58093877 3 18 C0.12721821 20.39398482 -1.72667978 20.96024433 -5.4375 21.5 C-10.11343956 20.84372778 -11.90068236 19.5420773 -15 16 C-16.5346796 11.82464266 -16.27947987 8.7943112 -14.8125 4.625 C-11.20259393 -0.60313983 -5.9672086 -1.0211266 0 0 Z " fill="#D7A005" transform="translate(156,235)"/>
<path d="M0 0 C10.39585368 -0.38091875 22.55225919 0.26921446 31.44140625 6.1953125 C26.25293831 7.3843364 23.87943039 7.06497153 18.90625 4.8984375 C13.60738778 3.38687617 7.90146059 3.98825988 2.44140625 4.1953125 C2.11140625 5.1853125 1.78140625 6.1753125 1.44140625 7.1953125 C0.78140625 7.1953125 0.12140625 7.1953125 -0.55859375 7.1953125 C-0.88859375 8.5153125 -1.21859375 9.8353125 -1.55859375 11.1953125 C-2.21859375 11.1953125 -2.87859375 11.1953125 -3.55859375 11.1953125 C-3.88859375 12.5153125 -4.21859375 13.8353125 -4.55859375 15.1953125 C-10.55859375 12.1953125 -16.55859375 9.1953125 -22.55859375 6.1953125 C-22.55859375 5.5353125 -22.55859375 4.8753125 -22.55859375 4.1953125 C-14.90975191 1.65634412 -8.01740856 0.4400334 0 0 Z " fill="#D7A110" transform="translate(216.55859375,135.8046875)"/>
<path d="M0 0 C3.36483329 0.10419338 4.23120031 0.46663354 7.1875 2.4375 C9.39406657 5.74734986 10.00150735 7.58557289 9.734375 11.49609375 C8.67527812 15.25588767 6.46273158 16.59146038 3.1875 18.4375 C-0.81473835 18.50650411 -2.9243831 18.06853043 -6.1875 15.75 C-8.22624374 12.84871083 -8.74015204 10.98255011 -8.8125 7.4375 C-6.62525373 2.85469829 -5.19079345 0.59566482 0 0 Z " fill="#D9A003" transform="translate(230.8125,228.5625)"/>
<path d="M0 0 C2.76223278 2.76223278 2.57856291 5.20706617 3 9 C3.33 9 3.66 9 4 9 C4.33 42 4.66 75 5 109 C6.485 108.505 6.485 108.505 8 108 C8 108.66 8 109.32 8 110 C9.485 109.01 9.485 109.01 11 108 C11.99 108.33 12.98 108.66 14 109 C13.34 109 12.68 109 12 109 C11.74089844 109.54140625 11.48179687 110.0828125 11.21484375 110.640625 C9.78105007 113.42522752 8.2034696 116.08210103 6.5625 118.75 C5.96566406 119.73484375 5.36882812 120.7196875 4.75390625 121.734375 C4.17511719 122.48203125 3.59632813 123.2296875 3 124 C2.01 124 1.02 124 0 124 C0.0889151 122.90143929 0.0889151 122.90143929 0.17962646 121.78068542 C1.68472756 102.69317474 2.32260553 83.73700005 2.26074219 64.59448242 C2.24931611 61.01873269 2.25614673 57.44328011 2.26764679 53.86754036 C2.3164346 35.81294908 1.65735382 17.99084887 0 0 Z " fill="#D6AC46" transform="translate(253,238)"/>
<path d="M0 0 C2.875 1.4375 2.875 1.4375 5 4 C5.71534153 7.14404141 5.71534153 9.85595859 5 13 C2.46228253 16.06018871 0.88265681 16.83450185 -3 17.5625 C-7.06920329 16.79952438 -8.48588332 15.23243573 -11 12 C-12.0625 9.5625 -12.0625 9.5625 -12 7 C-8.72562338 1.128704 -6.7678032 -0.66351012 0 0 Z " fill="#D99F04" transform="translate(145,295)"/>
<path d="M0 0 C2.22596013 2.29552139 2.96866832 3.83177611 3.0546875 7.0390625 C2.875 9.1875 2.875 9.1875 2 13 C-1.20380017 15.13586678 -2.01939967 15.23132175 -5.6875 15.125 C-6.49574219 15.10695312 -7.30398437 15.08890625 -8.13671875 15.0703125 C-8.75160156 15.04710937 -9.36648437 15.02390625 -10 15 C-10 14.34 -10 13.68 -10 13 C-10.66 13 -11.32 13 -12 13 C-13.49838501 10.62021205 -14.02556668 9.34088901 -13.8125 6.5 C-12.92597842 3.77224128 -11.94812401 2.09797971 -10 0 C-6.17853346 -1.27382218 -3.89335307 -0.97333827 0 0 Z " fill="#D7A63D" transform="translate(168,209)"/>
<path d="M0 0 C4.62 0 9.24 0 14 0 C14 4.62 14 9.24 14 14 C9.02936879 14.91297308 4.97063121 14.91297308 0 14 C0 9.38 0 4.76 0 0 Z " fill="#D4A11B" transform="translate(111,224)"/>
<path d="M0 0 C2.9375 2.0625 2.9375 2.0625 5 5 C5.06584389 8.81894541 4.85572029 10.97971812 2.375 13.9375 C-0.97682053 15.43699866 -3.36980218 15.45377473 -7 15 C-9.4375 13.4375 -9.4375 13.4375 -11 11 C-11.46337203 6.59796571 -11.48038907 4.7205836 -9 1 C-5.63633609 -0.1212213 -3.52465728 -0.42295887 0 0 Z " fill="#D5A020" transform="translate(134,263)"/>
<path d="M0 0 C1.88654385 4.63775363 3.21225675 7.95005809 3 13 C1.3767313 13.6708712 -0.24867578 14.33657029 -1.875 15 C-2.77992187 15.37125 -3.68484375 15.7425 -4.6171875 16.125 C-7 17 -7 17 -9 17 C-9.67057887 15.2097939 -10.3363469 13.41778511 -11 11.625 C-11.37125 10.62726563 -11.7425 9.62953125 -12.125 8.6015625 C-13 6 -13 6 -13 4 C-11.58774074 3.32404685 -10.16997095 2.65959941 -8.75 2 C-7.56664063 1.443125 -7.56664063 1.443125 -6.359375 0.875 C-4 0 -4 0 0 0 Z " fill="#D6A322" transform="translate(102,252)"/>
<path d="M0 0 C0.66 0.33 1.32 0.66 2 1 C2 1.66 2 2.32 2 3 C2.66 3 3.32 3 4 3 C4.36749117 10.47232038 4.36749117 10.47232038 2.78125 12.75 C0.47880036 14.36575414 -0.90315701 14.30855839 -3.6875 14.1875 C-4.89986328 14.14689453 -4.89986328 14.14689453 -6.13671875 14.10546875 C-6.75160156 14.07066406 -7.36648437 14.03585937 -8 14 C-8 13.34 -8 12.68 -8 12 C-8.66 12 -9.32 12 -10 12 C-10.92117061 8.39906035 -11.28640374 6.61372229 -9.6875 3.1875 C-6.8318573 -0.51425906 -4.49020139 -0.18709172 0 0 Z " fill="#D79E05" transform="translate(211,255)"/>
<path d="M0 0 C0.99 3.63 1.98 7.26 3 11 C-4.28571429 14.42857143 -4.28571429 14.42857143 -9 14 C-9.50833591 12.75336669 -10.00631145 11.50250613 -10.5 10.25 C-10.7784375 9.55390625 -11.056875 8.8578125 -11.34375 8.140625 C-12 6 -12 6 -12 2 C-7.82262526 0.40861915 -4.46839215 -0.21278058 0 0 Z " fill="#D49F1A" transform="translate(117,289)"/>
<path d="M0 0 C2.0625 3.3125 2.0625 3.3125 3 7 C2.07201174 10.43355655 1.0373462 10.97510253 -2 13 C-8.45283019 12.54716981 -8.45283019 12.54716981 -11 10 C-11.67681895 2.89340102 -11.67681895 2.89340102 -9.4375 -0.0625 C-5.79883694 -1.46198579 -3.69052052 -1.20780671 0 0 Z " fill="#D6A21B" transform="translate(195,295)"/>
<path d="M0 0 C1.26026798 2.52053595 0.91874445 3.8542098 0.5625 6.625 C0.40974609 7.85089844 0.40974609 7.85089844 0.25390625 9.1015625 C0.17011719 9.72804688 0.08632812 10.35453125 0 11 C0.99 11.33 1.98 11.66 3 12 C3 13.65 3 15.3 3 17 C7.62 17 12.24 17 17 17 C17 16.34 17 15.68 17 15 C17.66 15 18.32 15 19 15 C19 13.35 19 11.7 19 10 C18.01 10 17.02 10 16 10 C17.1858237 6.62496331 18.27573689 4.35277269 21 2 C22.59671189 5.19342379 22.37418163 8.52545631 22 12 C20.33735211 15.74095776 18.45021039 17.8428632 15 20 C11.27116889 20.66685504 7.73831305 20.59347106 4 20 C0.23853249 17.31323749 -1.92544834 14.51311698 -3 10 C-2.71009408 5.79636422 -2.35145082 3.52717623 0 0 Z " fill="#D3A733" transform="translate(217,281)"/>
<path d="M0 0 C0.50615298 1.26839526 1.00469099 2.53983102 1.5 3.8125 C1.7784375 4.52019531 2.056875 5.22789062 2.34375 5.95703125 C3 8 3 8 3 11 C1.73160474 11.50615298 0.46016898 12.00469099 -0.8125 12.5 C-1.52019531 12.7784375 -2.22789063 13.056875 -2.95703125 13.34375 C-5 14 -5 14 -8 14 C-8.99 10.7 -9.98 7.4 -11 4 C-2.25 0 -2.25 0 0 0 Z " fill="#D5AE53" transform="translate(81,278)"/>
<path d="M0 0 C3.36483329 0.10419338 4.23120031 0.46663354 7.1875 2.4375 C9.39406657 5.74734986 10.00150735 7.58557289 9.734375 11.49609375 C8.67527812 15.25588767 6.46273158 16.59146038 3.1875 18.4375 C-0.81473835 18.50650411 -2.9243831 18.06853043 -6.1875 15.75 C-8.22624374 12.84871083 -8.74015204 10.98255011 -8.8125 7.4375 C-6.62525373 2.85469829 -5.19079345 0.59566482 0 0 Z M-2.8125 2.4375 C-2.8125 3.4275 -2.8125 4.4175 -2.8125 5.4375 C-3.8025 5.4375 -4.7925 5.4375 -5.8125 5.4375 C-5.8125 7.7475 -5.8125 10.0575 -5.8125 12.4375 C-4.4925 12.1075 -3.1725 11.7775 -1.8125 11.4375 C-1.8125 12.4275 -1.8125 13.4175 -1.8125 14.4375 C1.47446233 15.23703138 2.89773192 15.53408936 6.1875 14.4375 C7.72462479 12.26382926 7.72462479 12.26382926 8.1875 9.4375 C6.67279348 5.63728107 6.67279348 5.63728107 4.1875 2.4375 C1.85452567 2.39657063 -0.47955225 2.39508277 -2.8125 2.4375 Z M0.1875 13.4375 C2.1875 14.4375 2.1875 14.4375 2.1875 14.4375 Z " fill="#D19F3A" transform="translate(230.8125,228.5625)"/>
<path d="M0 0 C0.33 0 0.66 0 1 0 C1.33 3.63 1.66 7.26 2 11 C2.99 10.67 3.98 10.34 5 10 C5 10.66 5 11.32 5 12 C5.99 11.34 6.98 10.68 8 10 C8.99 10.33 9.98 10.66 11 11 C10.34 11 9.68 11 9 11 C8.74089844 11.54140625 8.48179687 12.0828125 8.21484375 12.640625 C6.78105007 15.42522752 5.2034696 18.08210103 3.5625 20.75 C2.96566406 21.73484375 2.36882812 22.7196875 1.75390625 23.734375 C1.17511719 24.48203125 0.59632813 25.2296875 0 26 C-0.99 26 -1.98 26 -3 26 C-2.85978195 23.35375716 -2.71310224 20.70815422 -2.5625 18.0625 C-2.52318359 17.30775391 -2.48386719 16.55300781 -2.44335938 15.77539062 C-2.11328125 10.11328125 -2.11328125 10.11328125 -1 9 C-0.76807135 7.48530552 -0.58784762 5.96245438 -0.4375 4.4375 C-0.35371094 3.61121094 -0.26992187 2.78492188 -0.18359375 1.93359375 C-0.12300781 1.29550781 -0.06242188 0.65742188 0 0 Z " fill="#D19C18" transform="translate(256,336)"/>
<path d="M0 0 C1.95903745 0.47627975 3.91721097 0.95611423 5.875 1.4375 C6.96554687 1.70433594 8.05609375 1.97117188 9.1796875 2.24609375 C12 3 12 3 14 4 C14 4.99 14 5.98 14 7 C2.76953125 11.4921875 2.76953125 11.4921875 0.80981445 12.27099609 C-0.74997983 12.8992904 -2.29813393 13.55634311 -3.84375 14.21875 C-6.34328286 15.12437785 -7.54153634 14.9105421 -10 14 C-9.34 12.68 -8.68 11.36 -8 10 C-7.67 10.66 -7.34 11.32 -7 12 C-3.85835465 11.26307084 -0.89403604 10.44437265 2 9 C3.68036511 5.97115156 3.68036511 5.97115156 4 3 C2.68 2.67 1.36 2.34 0 2 C0 1.34 0 0.68 0 0 Z " fill="#D59F17" transform="translate(466,177)"/>
<path d="M0 0 C2.375 2 2.375 2 4 4 C3 6 3 6 -0.0625 7.125 C-1.031875 7.41375 -2.00125 7.7025 -3 8 C-3.33 7.34 -3.66 6.68 -4 6 C-3.67 5.34 -3.34 4.68 -3 4 C-2.34 4 -1.68 4 -1 4 C-1 3.34 -1 2.68 -1 2 C-4.465 3.485 -4.465 3.485 -8 5 C-8.41725678 8.37400578 -8.41725678 8.37400578 -8 12 C-5.6273026 14.00864359 -5.6273026 14.00864359 -3 15 C-2.67 14.34 -2.34 13.68 -2 13 C-0.35 13.33 1.3 13.66 3 14 C1.16115216 16.45179712 0.19735411 16.96567755 -2.875 17.5 C-7.06554046 16.82951353 -8.42530646 15.31032027 -11 12 C-12.0625 9.5625 -12.0625 9.5625 -12 7 C-8.73291719 1.14178255 -6.76505114 -0.67650511 0 0 Z " fill="#D4A233" transform="translate(145,295)"/>
<path d="M0 0 C0.33 3.3 0.66 6.6 1 10 C-3 10 -3 10 -6 8 C-6 8.66 -6 9.32 -6 10 C-7.32 9.67 -8.64 9.34 -10 9 C-10.25 6.1875 -10.25 6.1875 -10 3 C-7.05843777 -0.39411027 -4.30855278 -0.29376496 0 0 Z " fill="#DB9F03" transform="translate(135,264)"/>
<path d="M0 0 C1.65 0 3.3 0 5 0 C6.11393093 3.34179279 5.75376997 4.64991123 5 8 C5 8.99 5 9.98 5 11 C4.34 11 3.68 11 3 11 C3.33 11.99 3.66 12.98 4 14 C2.02 14 0.04 14 -2 14 C-2.33 13.01 -2.66 12.02 -3 11 C-3.66 10.67 -4.32 10.34 -5 10 C-3.35 6.7 -1.7 3.4 0 0 Z " fill="#D69F07" transform="translate(162,210)"/>
<path d="M0 0 C2.88097207 1.44048603 4.677055 2.47154455 6.375 5.25 C7.20813901 8.91581166 6.97369633 11.36486705 6 15 C3.81008403 17.58297781 2.03168312 19.48415844 -1 21 C-7.39889197 21.46537396 -7.39889197 21.46537396 -9.9375 19.5 C-10.288125 19.005 -10.63875 18.51 -11 18 C-9.02 18.33 -7.04 18.66 -5 19 C-4.896875 18.38125 -4.79375 17.7625 -4.6875 17.125 C-4 15 -4 15 -1 13 C0.32 14.32 1.64 15.64 3 17 C3.08078641 14.87561661 3.13909141 12.7503677 3.1875 10.625 C3.22230469 9.44164062 3.25710937 8.25828125 3.29296875 7.0390625 C3.19628906 6.03617188 3.09960938 5.03328125 3 4 C2.01 3.34 1.02 2.68 0 2 C0 1.34 0 0.68 0 0 Z " fill="#D8A92D" transform="translate(155,235)"/>
<path d="M0 0 C-6.05525768 1.38766322 -9.32010626 0.49118146 -15 -2 C-15 -2.33 -15 -2.66 -15 -3 C-25.56 -3 -36.12 -3 -47 -3 C-36.04117737 -10.30588175 -10.83772445 -7.22514963 0 0 Z " fill="#D7AD4B" transform="translate(248,142)"/>
<path d="M0 0 C0 0.33 0 0.66 0 1 C-16.56666667 -0.56666667 -16.56666667 -0.56666667 -18 -2 C-23.44355303 -2.85345744 -28.71746753 -3.13807902 -34.21875 -3.09765625 C-35.33376892 -3.09553383 -35.33376892 -3.09553383 -36.47131348 -3.09336853 C-38.81425229 -3.08783109 -41.15709073 -3.07529091 -43.5 -3.0625 C-45.10156111 -3.05747689 -46.70312373 -3.05291542 -48.3046875 -3.04882812 C-52.20316288 -3.03788227 -56.1015645 -3.02066196 -60 -3 C-60 -3.33 -60 -3.66 -60 -4 C-39.62512994 -6.68655987 -19.77396482 -5.34431482 0 0 Z " fill="#D4A94B" transform="translate(465,176)"/>
<path d="M0 0 C0.66 0.33 1.32 0.66 2 1 C2 1.66 2 2.32 2 3 C2.66 3 3.32 3 4 3 C4.36749117 10.47232038 4.36749117 10.47232038 2.78125 12.75 C0.47880036 14.36575414 -0.90315701 14.30855839 -3.6875 14.1875 C-4.89986328 14.14689453 -4.89986328 14.14689453 -6.13671875 14.10546875 C-6.75160156 14.07066406 -7.36648437 14.03585937 -8 14 C-8 13.34 -8 12.68 -8 12 C-8.66 12 -9.32 12 -10 12 C-9.67 11.01 -9.34 10.02 -9 9 C-9 9.66 -9 10.32 -9 11 C-5.37 11 -1.74 11 2 11 C2.33 8.69 2.66 6.38 3 4 C1.68 4 0.36 4 -1 4 C-1 3.34 -1 2.68 -1 2 C-2.98 2.33 -4.96 2.66 -7 3 C-7.103125 3.639375 -7.20625 4.27875 -7.3125 4.9375 C-7.539375 5.618125 -7.76625 6.29875 -8 7 C-8.99 7.33 -9.98 7.66 -11 8 C-9.09527072 1.2601887 -7.06608196 -0.45102651 0 0 Z " fill="#D6AF51" transform="translate(211,255)"/>
<path d="M0 0 C0.66 0 1.32 0 2 0 C2.03738281 0.95519531 2.07476562 1.91039062 2.11328125 2.89453125 C2.52442246 10.98030836 3.44014488 18.25603578 6 26 C6.66 26 7.32 26 8 26 C8.66 28.31 9.32 30.62 10 33 C4.81373354 28.77415325 2.0767164 22.2301492 0 16 C-0.07051114 13.26134713 -0.09357765 10.54972412 -0.0625 7.8125 C-0.05798828 7.06291016 -0.05347656 6.31332031 -0.04882812 5.54101562 C-0.03706354 3.69397617 -0.01912865 1.84697787 0 0 Z " fill="#D4AE4B" transform="translate(299,129)"/>
<path d="M0 0 C0.66 0.33 1.32 0.66 2 1 C2 1.66 2 2.32 2 3 C1.01 3 0.02 3 -1 3 C-1.144375 4.051875 -1.28875 5.10375 -1.4375 6.1875 C-2 10 -2 10 -2.6875 12.6875 C-3.06240603 15.46180464 -2.46870279 16.6673544 -1 19 C-0.01 19 0.98 19 2 19 C1.34 19.33 0.68 19.66 0 20 C-0.65213292 22.02463255 -0.65213292 22.02463255 -1 24 C-5.58349423 18.3815232 -6.71273104 15.21483877 -6 8 C-4.50219509 4.71909401 -2.66484004 2.41104575 0 0 Z " fill="#D7AA3B" transform="translate(204,190)"/>
<path d="M0 0 C0.78375 0.04125 1.5675 0.0825 2.375 0.125 C3.035 2.105 3.695 4.085 4.375 6.125 C3.385 6.125 2.395 6.125 1.375 6.125 C1.045 7.115 0.715 8.105 0.375 9.125 C-1.275 9.455 -2.925 9.785 -4.625 10.125 C-4.8203125 4.0703125 -4.8203125 4.0703125 -4.625 2.125 C-2.625 0.125 -2.625 0.125 0 0 Z " fill="#D49B0A" transform="translate(77.625,280.875)"/>
<path d="M0 0 C7.11287338 6.70758145 8.42679545 15.59270173 9 25 C8.54296875 27.92578125 8.54296875 27.92578125 8 30 C7.67 30 7.34 30 7 30 C6.34 23.73 5.68 17.46 5 11 C3.35 10.67 1.7 10.34 0 10 C0.185625 9.46375 0.37125 8.9275 0.5625 8.375 C1.11419324 5.38009386 0.60597444 2.96254171 0 0 Z " fill="#D9AD46" transform="translate(362,114)"/>
<path d="M0 0 C2.475 0.495 2.475 0.495 5 1 C5.33 2.65 5.66 4.3 6 6 C6.99 6 7.98 6 9 6 C13 11.14285714 13 11.14285714 13 15 C13.99 15.33 14.98 15.66 16 16 C17.45007937 18.68264684 18.11784055 20.27331661 17.625 23.3125 C17.315625 24.1478125 17.315625 24.1478125 17 25 C17 24.01 17 23.02 17 22 C16.34 22 15.68 22 15 22 C14.18432826 20.56429734 13.37257907 19.12636566 12.5625 17.6875 C12.11003906 16.88699219 11.65757812 16.08648437 11.19140625 15.26171875 C10 13 10 13 9 10 C8.34 10 7.68 10 7 10 C5.2734375 8.06640625 5.2734375 8.06640625 3.375 5.5625 C2.74335938 4.73878906 2.11171875 3.91507813 1.4609375 3.06640625 C0 1 0 1 0 0 Z " fill="#D4A83E" transform="translate(218,156)"/>
<path d="M0 0 C3.1414436 1.83250877 6.22602027 3.63698023 9 6 C9 6.66 9 7.32 9 8 C9.66 8 10.32 8 11 8 C12.625 10 12.625 10 14 12 C13.34 13.32 12.68 14.64 12 16 C11.34 14.68 10.68 13.36 10 12 C9.34 12 8.68 12 8 12 C8 11.34 8 10.68 8 10 C7.34 10 6.68 10 6 10 C6 9.34 6 8.68 6 8 C5.38125 7.79375 4.7625 7.5875 4.125 7.375 C1.15346355 5.45224112 0.86975341 3.33405473 0 0 Z " fill="#D8AA3F" transform="translate(258,148)"/>
<path d="M0 0 C1.32 0.66 2.64 1.32 4 2 C-0.73507372 6.35114883 -8.33930107 13 -15 13 C-15 12.34 -15 11.68 -15 11 C-14.34 11 -13.68 11 -13 11 C-13 10.34 -13 9.68 -13 9 C-10 7 -10 7 -6 7 C-6 5.35 -6 3.7 -6 2 C-2.25 0.875 -2.25 0.875 0 2 C0 1.34 0 0.68 0 0 Z " fill="#D8AC38" transform="translate(416,208)"/>
<path d="M0 0 C0 0.66 0 1.32 0 2 C0.99 2.33 1.98 2.66 3 3 C-0.81347115 4.27115705 -2.35973036 3.54905091 -6 2 C-6.66 1.01 -7.32 0.02 -8 -1 C-14.20046145 -3.42567503 -21.42783138 -3.53319176 -28 -4 C-28 -4.33 -28 -4.66 -28 -5 C-18.27517551 -7.26158709 -8.48391212 -4.99053654 0 0 Z " fill="#D8AD50" transform="translate(355,106)"/>
<path d="M0 0 C1.32 0.33 2.64 0.66 4 1 C4.67662 3.68533564 5.34146121 6.372725 6 9.0625 C6.19078125 9.81466797 6.3815625 10.56683594 6.578125 11.34179688 C7.7141096 16.02773336 8.20486266 20.17932546 8 25 C5.39057782 22.39057782 5.29529115 20.41021474 4.5625 16.8125 C3.48680966 11.8456645 2.10016196 7.60035478 0 3 C0 2.01 0 1.02 0 0 Z " fill="#D6A937" transform="translate(242,194)"/>
<path d="M0 0 C1.98 0 3.96 0 6 0 C6.99 3.63 7.98 7.26 9 11 C1.71428571 14.42857143 1.71428571 14.42857143 -3 14 C-3.33 12.68 -3.66 11.36 -4 10 C-3.34 9.67 -2.68 9.34 -2 9 C-2 9.99 -2 10.98 -2 12 C-1.01 12 -0.02 12 1 12 C1 11.34 1 10.68 1 10 C2.65 10 4.3 10 6 10 C5.67 7.36 5.34 4.72 5 2 C3.35 1.67 1.7 1.34 0 1 C0 0.67 0 0.34 0 0 Z " fill="#D3AC44" transform="translate(111,289)"/>
<path d="M0 0 C4.15526857 -0.33242149 6.55857236 -0.22487823 10.3125 1.6875 C13.21970726 4.18905043 14.23769819 5.27319113 15 9 C15.06016505 13.30609822 14.72223463 16.12456408 11.9375 19.5 C11.298125 19.995 10.65875 20.49 10 21 C10.23783203 20.1646875 10.23783203 20.1646875 10.48046875 19.3125 C11.5980484 14.33801014 12.20063721 8.92101954 9.4375 4.5 C6.40164004 2.63177848 3.46010936 1.79848678 0 1 C0 0.67 0 0.34 0 0 Z " fill="#D7B153" transform="translate(189,225)"/>
<path d="M0 0 C0 2 0 4 0 6 C-4.75 8 -4.75 8 -7 8 C-7 8.99 -7 9.98 -7 11 C-8.65 11.33 -10.3 11.66 -12 12 C-12.103125 12.61875 -12.20625 13.2375 -12.3125 13.875 C-13 16 -13 16 -16 18 C-16.66 18.99 -17.32 19.98 -18 21 C-18 20.34 -18 19.68 -18 19 C-18.66 18.67 -19.32 18.34 -20 18 C-19.01 17.67 -18.02 17.34 -17 17 C-17 16.34 -17 15.68 -17 15 C-16.34 15 -15.68 15 -15 15 C-15 14.34 -15 13.68 -15 13 C-14.34 13 -13.68 13 -13 13 C-13 12.34 -13 11.68 -13 11 C-11.25998065 9.44038399 -9.45696803 7.95050425 -7.625 6.5 C-3.68517459 3.39240862 -3.68517459 3.39240862 0 0 Z " fill="#D3A636" transform="translate(326,212)"/>
<path d="M0 0 C0.33 1.98 0.66 3.96 1 6 C0.34 6 -0.32 6 -1 6 C-1 5.01 -1 4.02 -1 3 C-2.98 3.33 -4.96 3.66 -7 4 C-7.66 5.98 -8.32 7.96 -9 10 C-9.99 9.67 -10.98 9.34 -12 9 C-12.33 7.35 -12.66 5.7 -13 4 C-11.58774074 3.32404685 -10.16997095 2.65959941 -8.75 2 C-7.56664063 1.443125 -7.56664063 1.443125 -6.359375 0.875 C-4 0 -4 0 0 0 Z " fill="#D2A127" transform="translate(102,252)"/>
<path d="M0 0 C0 1.32 0 2.64 0 4 C-0.66 3.34 -1.32 2.68 -2 2 C-3.32 2 -4.64 2 -6 2 C-6.99 3.485 -6.99 3.485 -8 5 C-8.66 5 -9.32 5 -10 5 C-10 5.99 -10 6.98 -10 8 C-9.01 8 -8.02 8 -7 8 C-6.67 8.99 -6.34 9.98 -6 11 C-7.32 11 -8.64 11 -10 11 C-11 10 -11 10 -11.3125 6.125 C-11.26040638 3.22338554 -11.23137392 2.30541357 -9.4375 -0.0625 C-6.03984559 -1.36929016 -3.50452474 -0.74134177 0 0 Z " fill="#D3A733" transform="translate(195,295)"/>
<path d="M0 0 C0.33 0.66 0.66 1.32 1 2 C0.03135805 4.06226996 -1.12040866 5.97231615 -2.28515625 7.9296875 C-3.2642146 10.04151925 -3.2642146 10.04151925 -2.12109375 12.2578125 C-1.75113281 12.83273438 -1.38117188 13.40765625 -1 14 C-1.66 14 -2.32 14 -3 14 C-3 13.34 -3 12.68 -3 12 C-3.66 12 -4.32 12 -5 12 C-6.56633048 9.51229865 -7.04100928 8.34447796 -6.6875 5.375 C-6 3 -6 3 -5 1 C-2.4375 0.375 -2.4375 0.375 0 0 Z " fill="#D6A72C" transform="translate(161,210)"/>
<path d="M0 0 C1.69141656 0.08963062 3.37959602 0.24577676 5.0625 0.4375 C6.44115234 0.59025391 6.44115234 0.59025391 7.84765625 0.74609375 C8.55792969 0.82988281 9.26820313 0.91367187 10 1 C9.01 1.495 9.01 1.495 8 2 C8 2.66 8 3.32 8 4 C6.25 5.5078125 6.25 5.5078125 4 7.125 C3.2575 7.66382813 2.515 8.20265625 1.75 8.7578125 C1.1725 9.16773438 0.595 9.57765625 0 10 C-0.19412181 8.52168779 -0.38012131 7.04230684 -0.5625 5.5625 C-0.66691406 4.73878906 -0.77132813 3.91507812 -0.87890625 3.06640625 C-0.91886719 2.38449219 -0.95882813 1.70257813 -1 1 C-0.67 0.67 -0.34 0.34 0 0 Z " fill="#D6A625" transform="translate(322,273)"/>
<path d="M0 0 C0 0.66 0 1.32 0 2 C0.66 2.33 1.32 2.66 2 3 C-3.94 3.495 -3.94 3.495 -10 4 C-10.66 5.65 -11.32 7.3 -12 9 C-14.50357861 8.1654738 -16.66785852 7.20628008 -19 6 C-4.26213592 0 -4.26213592 0 0 0 Z " fill="#D5A227" transform="translate(396,175)"/>
<path d="M0 0 C0.33 0 0.66 0 1 0 C1.02689216 1.47906892 1.04634621 2.95827483 1.0625 4.4375 C1.07410156 5.26121094 1.08570313 6.08492188 1.09765625 6.93359375 C1 9 1 9 0 10 C-1.99950636 10.04443347 -4.00038436 10.03920815 -6 10 C-7.32 10 -8.64 10 -10 10 C-9.525625 9.566875 -9.05125 9.13375 -8.5625 8.6875 C-6.76313043 6.97690387 -6.76313043 6.97690387 -6 4 C-5.34 4.66 -4.68 5.32 -4 6 C-2.68 5.34 -1.36 4.68 0 4 C0 2.68 0 1.36 0 0 Z " fill="#D8A216" transform="translate(149,299)"/>
<path d="M0 0 C0.66 0.66 1.32 1.32 2 2 C1.67 2.66 1.34 3.32 1 4 C2.65 4.33 4.3 4.66 6 5 C6.33 4.34 6.66 3.68 7 3 C7.66 3.33 8.32 3.66 9 4 C9.33 3.34 9.66 2.68 10 2 C9.6875 3.875 9.6875 3.875 9 6 C5.77208445 8.1519437 4.71599191 8.20086443 1 8 C0.67 7.01 0.34 6.02 0 5 C-0.66 5 -1.32 5 -2 5 C-2.33 4.01 -2.66 3.02 -3 2 C-2.01 2 -1.02 2 0 2 C0 1.34 0 0.68 0 0 Z M3 3 C5 4 5 4 5 4 Z " fill="#D4A525" transform="translate(228,239)"/>
<path d="M0 0 C0.66 0 1.32 0 2 0 C2.17835515 4.54805635 1.99785435 7.8794254 0 12 C-0.66 12 -1.32 12 -2 12 C-2.33 12.99 -2.66 13.98 -3 15 C-4.98 15.33 -6.96 15.66 -9 16 C-9 15.34 -9 14.68 -9 14 C-7.68 14 -6.36 14 -5 14 C-4.67 13.01 -4.34 12.02 -4 11 C-3.505 10.236875 -3.01 9.47375 -2.5 8.6875 C-0.85666602 5.74319329 -0.38687323 3.32710979 0 0 Z " fill="#D4A739" transform="translate(224,199)"/>
<path d="M0 0 C1.65 0 3.3 0 5 0 C4.62488281 0.43570312 4.24976563 0.87140625 3.86328125 1.3203125 C0.54140223 5.18607599 -2.74642927 9.07657648 -6 13 C-6.98120464 9.94736336 -6.98120464 8.05263664 -6 5 C-4.35 5 -2.7 5 -1 5 C-0.67 3.35 -0.34 1.7 0 0 Z " fill="#D5AA38" transform="translate(316,284)"/>
<path d="M0 0 C2 2 2 2 2.1875 5.9375 C2.16190316 8.67636155 1.88664156 10.34007532 1 13 C0.34 13 -0.32 13 -1 13 C-1 11.35 -1 9.7 -1 8 C-1.99 8 -2.98 8 -4 8 C-2.87548273 5.0280615 -1.77706209 2.66559313 0 0 Z " fill="#D4A728" transform="translate(237,283)"/>
<path d="M0 0 C2.64 0 5.28 0 8 0 C8 0.66 8 1.32 8 2 C17.9 1.505 17.9 1.505 28 1 C24.41257468 4.58742532 18.87539722 3.85625364 14 4 C8.98305836 3.82028866 4.56744928 3.2100561 0 1 C0 0.67 0 0.34 0 0 Z " fill="#D6A948" transform="translate(319,169)"/>
<path d="M0 0 C0 0.99 0 1.98 0 3 C-1.32 3.33 -2.64 3.66 -4 4 C-4 4.66 -4 5.32 -4 6 C-6.21585882 8.21585882 -7.02193622 8.40438724 -10 9 C-10.9075 9.185625 -11.815 9.37125 -12.75 9.5625 C-13.4925 9.706875 -14.235 9.85125 -15 10 C-12.24865461 7.04485124 -9.60266225 4.8475191 -6 3 C-5.01 3 -4.02 3 -3 3 C-3 2.34 -3 1.68 -3 1 C-2.01 0.67 -1.02 0.34 0 0 Z " fill="#CEA22F" transform="translate(361,189)"/>
<path d="M0 0 C0 0.33 0 0.66 0 1 C-1.7015625 1.4640625 -1.7015625 1.4640625 -3.4375 1.9375 C-6.78775099 2.62924531 -6.78775099 2.62924531 -8 4 C-8.07148199 5.35243917 -8.08399454 6.70834367 -8.0625 8.0625 C-8.041875 9.361875 -8.02125 10.66125 -8 12 C-7.01 12.33 -6.02 12.66 -5 13 C-5 13.66 -5 14.32 -5 15 C-6.875 14.6875 -6.875 14.6875 -9 14 C-11.45811625 10.31282562 -11.31118164 8.35654296 -11 4 C-7.95841042 -0.56238437 -5.1474794 -0.11438843 0 0 Z " fill="#D4B25D" transform="translate(134,263)"/>
<path d="M0 0 C3.78214542 4.2023838 9 11.09443215 9 17 C8.01 17 7.02 17 6 17 C5.87625 16.360625 5.7525 15.72125 5.625 15.0625 C5.41875 14.381875 5.2125 13.70125 5 13 C4.34 12.67 3.68 12.34 3 12 C1.4413321 8.05748707 0.59835078 4.18845544 0 0 Z " fill="#D2A032" transform="translate(274,164)"/>
<path d="M0 0 C2.88097207 1.44048603 4.677055 2.47154455 6.375 5.25 C7.18861293 8.8298969 6.85645177 11.44243112 6 15 C4.44921875 16.7109375 4.44921875 16.7109375 3 18 C3.03480469 17.01257813 3.06960937 16.02515625 3.10546875 15.0078125 C3.13253906 13.72648438 3.15960938 12.44515625 3.1875 11.125 C3.22230469 9.84882813 3.25710937 8.57265625 3.29296875 7.2578125 C3.19628906 6.18273437 3.09960938 5.10765625 3 4 C2.01 3.34 1.02 2.68 0 2 C0 1.34 0 0.68 0 0 Z " fill="#DCB453" transform="translate(155,235)"/>
<path d="M0 0 C0.66 0.33 1.32 0.66 2 1 C2 1.99 2 2.98 2 4 C1.01 4 0.02 4 -1 4 C-0.67 7.3 -0.34 10.6 0 14 C0.66 14 1.32 14 2 14 C1.67 14.66 1.34 15.32 1 16 C-1.62350121 13.79964415 -2.88554463 12.35862684 -3.9375 9.0625 C-4.01191483 5.41617314 -3.14714509 3.89038762 -1 1 C-0.67 0.67 -0.34 0.34 0 0 Z " fill="#D5AE3E" transform="translate(226,230)"/>
<path d="M0 0 C0.763125 0.20625 1.52625 0.4125 2.3125 0.625 C2.3125 1.945 2.3125 3.265 2.3125 4.625 C0.6625 4.625 -0.9875 4.625 -2.6875 4.625 C-2.6875 5.285 -2.6875 5.945 -2.6875 6.625 C-3.6775 6.625 -4.6675 6.625 -5.6875 6.625 C-5.875 4.25 -5.875 4.25 -5.6875 1.625 C-2.6875 -0.375 -2.6875 -0.375 0 0 Z " fill="#D9A002" transform="translate(114.6875,294.375)"/>
<path d="M0 0 C1.875 1.5 1.875 1.5 3 3 C1.68 3.33 0.36 3.66 -1 4 C-1 3.34 -1 2.68 -1 2 C-2.98 2.33 -4.96 2.66 -7 3 C-7.103125 3.639375 -7.20625 4.27875 -7.3125 4.9375 C-7.539375 5.618125 -7.76625 6.29875 -8 7 C-8.99 7.33 -9.98 7.66 -11 8 C-9.14013698 1.41894625 -7.03517372 -0.7328306 0 0 Z " fill="#D5A744" transform="translate(211,255)"/>
<path d="M0 0 C0.33 0.99 0.66 1.98 1 3 C-0.56181132 5.74197701 -2.60411783 7.95580695 -5 10 C-7.875 10.4375 -7.875 10.4375 -10 10 C-9.67 9.01 -9.34 8.02 -9 7 C-8.34 7 -7.68 7 -7 7 C-5.19939002 5.44316885 -5.19939002 5.44316885 -3.375 3.5 C-2.74335938 2.8503125 -2.11171875 2.200625 -1.4609375 1.53125 C-0.97882813 1.0259375 -0.49671875 0.520625 0 0 Z " fill="#D9A132" transform="translate(305,231)"/>
<path d="M0 0 C-2.82303736 1.41793467 -5.64562529 2.83362706 -8.5 4.1875 C-9.2528125 4.55230469 -10.005625 4.91710937 -10.78125 5.29296875 C-13.3063126 6.09761018 -14.53870625 5.87823436 -17 5 C-16.34 3.68 -15.68 2.36 -15 1 C-14.67 1.66 -14.34 2.32 -14 3 C-13.40832031 2.7834375 -12.81664062 2.566875 -12.20703125 2.34375 C-4.35852373 -0.42179262 -4.35852373 -0.42179262 0 0 Z " fill="#D4AA39" transform="translate(473,186)"/>
<path d="M0 0 C1.98 0 3.96 0 6 0 C3.83735988 3.98381075 1.28788824 6.88983545 -2 10 C-2.33 8.35 -2.66 6.7 -3 5 C-2.34 4.67 -1.68 4.34 -1 4 C-0.34 4.33 0.32 4.66 1 5 C0.67 3.35 0.34 1.7 0 0 Z " fill="#DAAD41" transform="translate(290,310)"/>
<path d="M0 0 C-0.66 0 -1.32 0 -2 0 C-2 0.66 -2 1.32 -2 2 C-3.8984375 3.5078125 -3.8984375 3.5078125 -6.375 5.125 C-7.59316406 5.93324219 -7.59316406 5.93324219 -8.8359375 6.7578125 C-11 8 -11 8 -13 8 C-13.33 7.01 -13.66 6.02 -14 5 C-12.35 5 -10.7 5 -9 5 C-8.67 3.35 -8.34 1.7 -8 0 C-4.71303767 -0.79953138 -3.28976808 -1.09658936 0 0 Z " fill="#D7B140" transform="translate(394,226)"/>
<path d="M0 0 C0.33 0 0.66 0 1 0 C1 3.96 1 7.92 1 12 C1.66 12 2.32 12 3 12 C3.33 10.68 3.66 9.36 4 8 C5 11 5 11 3.75 13.6875 C3.1725 14.450625 2.595 15.21375 2 16 C1.01 16 0.02 16 -1 16 C-0.67 10.72 -0.34 5.44 0 0 Z " fill="#E0BE72" transform="translate(254,346)"/>
<path d="M0 0 C0.33 0.66 0.66 1.32 1 2 C1.99 1.34 2.98 0.68 4 0 C4.99 0.33 5.98 0.66 7 1 C6.34 1 5.68 1 5 1 C4.566875 1.928125 4.566875 1.928125 4.125 2.875 C3 5 3 5 1 7 C0.34 6.01 -0.32 5.02 -1 4 C-1.99 4.66 -2.98 5.32 -4 6 C-3.67 4.35 -3.34 2.7 -3 1 C-2.01 0.67 -1.02 0.34 0 0 Z " fill="#D7A728" transform="translate(260,346)"/>
<path d="M0 0 C1.98 0 3.96 0 6 0 C6 1.32 6 2.64 6 4 C5.34 4 4.68 4 4 4 C3.67 4.99 3.34 5.98 3 7 C2.01 6.67 1.02 6.34 0 6 C0 4.02 0 2.04 0 0 Z " fill="#D0A109" transform="translate(129,264)"/>
<path d="M0 0 C0.66 0.33 1.32 0.66 2 1 C1.360625 1.825 0.72125 2.65 0.0625 3.5 C-2.46413081 7.23191406 -2.69360228 10.55723303 -3 15 C-4.85376666 12.27387255 -4.99513447 10.86376511 -4.875 7.5 C-3.93484821 3.73939283 -2.96883153 2.39421898 0 0 Z " fill="#D6B353" transform="translate(145,236)"/>
<path d="M0 0 C1.32 0 2.64 0 4 0 C4 0.66 4 1.32 4 2 C4.804375 2.268125 5.60875 2.53625 6.4375 2.8125 C7.7059375 3.4003125 7.7059375 3.4003125 9 4 C9.33 4.99 9.66 5.98 10 7 C9.34 7.66 8.68 8.32 8 9 C7.34 7.68 6.68 6.36 6 5 C5.34 5 4.68 5 4 5 C4 4.34 4 3.68 4 3 C3.34 3 2.68 3 2 3 C2 2.34 2 1.68 2 1 C1.34 0.67 0.68 0.34 0 0 Z " fill="#D7A226" transform="translate(262,155)"/>
<path d="M0 0 C4.92127034 -0.16682272 8.50343896 -0.24828052 13 2 C13 2.33 13 2.66 13 3 C8.33533582 3.91464004 5.23405029 4.36608693 1 2 C0.67 1.34 0.34 0.68 0 0 Z " fill="#D9A535" transform="translate(235,139)"/>
<path d="M0 0 C-1 2 -1 2 -3.9375 3.125 C-7 4 -7 4 -9 4 C-9.33 4.66 -9.66 5.32 -10 6 C-10.66 5.67 -11.32 5.34 -12 5 C-7.72451559 0.2358888 -7.72451559 0.2358888 -4.3125 -0.875 C-2 -1 -2 -1 0 0 Z " fill="#DAB24D" transform="translate(175,264)"/>
<path d="M0 0 C0.66 0.33 1.32 0.66 2 1 C-2.93654267 7.70459519 -2.93654267 7.70459519 -7.375 8.9375 C-8.24125 8.958125 -9.1075 8.97875 -10 9 C-6.83047153 5.73991357 -3.60062011 2.77762123 0 0 Z " fill="#D7AE45" transform="translate(338,203)"/>
<path d="M0 0 C0.66 0.33 1.32 0.66 2 1 C2 1.66 2 2.32 2 3 C1.01 3 0.02 3 -1 3 C-1.33 5.31 -1.66 7.62 -2 10 C-2.99 10 -3.98 10 -5 10 C-5.33 9.34 -5.66 8.68 -6 8 C-4.38999603 4.86049226 -2.61500768 2.36595933 0 0 Z " fill="#D9B04C" transform="translate(204,190)"/>
<path d="M0 0 C-2.88087546 2.40072955 -5.56404834 4.47291037 -9 6 C-8.625 3.5625 -8.625 3.5625 -8 1 C-5.29120665 -0.35439668 -2.99066732 -0.06501451 0 0 Z " fill="#DAAC38" transform="translate(380,235)"/>
<path d="M0 0 C1.32 0.66 2.64 1.32 4 2 C3.67 2.99 3.34 3.98 3 5 C-0.0625 6.1875 -0.0625 6.1875 -3 7 C-3.33 6.34 -3.66 5.68 -4 5 C-3.67 4.34 -3.34 3.68 -3 3 C-2.34 3 -1.68 3 -1 3 C-0.67 2.01 -0.34 1.02 0 0 Z " fill="#D8A420" transform="translate(145,296)"/>
<path d="M0 0 C0.33 1.98 0.66 3.96 1 6 C0.34 6 -0.32 6 -1 6 C-1 5.01 -1 4.02 -1 3 C-3.64 3 -6.28 3 -9 3 C-4.5 0 -4.5 0 0 0 Z " fill="#DAB35D" transform="translate(102,252)"/>
<path d="M0 0 C0.33 0 0.66 0 1 0 C0.938125 0.99 0.87625 1.98 0.8125 3 C0.78508355 7.46888211 2.2791773 10.91304608 4 15 C3.34 15 2.68 15 2 15 C-1.49299205 10.70093287 -1.34733262 7.29682248 -1 2 C-0.67 1.34 -0.34 0.68 0 0 Z " fill="#D2AE57" transform="translate(182,231)"/>
<path d="M0 0 C0.33 0.99 0.66 1.98 1 3 C-1.3125 6.1875 -1.3125 6.1875 -4 9 C-4.66 9 -5.32 9 -6 9 C-6.33 8.01 -6.66 7.02 -7 6 C-6.01 6 -5.02 6 -4 6 C-4 4.35 -4 2.7 -4 1 C-2.68 0.67 -1.36 0.34 0 0 Z " fill="#D8A93C" transform="translate(363,155)"/>
<path d="M0 0 C0.33 1.32 0.66 2.64 1 4 C0.34 4 -0.32 4 -1 4 C-1.0825 4.61875 -1.165 5.2375 -1.25 5.875 C-2 8 -2 8 -4.0625 9.25 C-4.701875 9.4975 -5.34125 9.745 -6 10 C-4.79157144 5.56909529 -3.48331435 3.01887244 0 0 Z " fill="#D3AC3D" transform="translate(309,111)"/>
<path d="M0 0 C0 2 0 4 0 6 C-4.625 8.125 -4.625 8.125 -8 7 C-5.36 4.69 -2.72 2.38 0 0 Z " fill="#DAB03E" transform="translate(326,212)"/>
<path d="M0 0 C1.65 0 3.3 0 5 0 C5.33 0.66 5.66 1.32 6 2 C7.64142963 3.0409066 9.30712215 4.04504326 11 5 C10.34 5.66 9.68 6.32 9 7 C7.4972763 6.02501855 5.99788037 5.04490611 4.5 4.0625 C3.6646875 3.51722656 2.829375 2.97195312 1.96875 2.41015625 C1.3190625 1.94480469 0.669375 1.47945312 0 1 C0 0.67 0 0.34 0 0 Z " fill="#D3AA3A" transform="translate(309,162)"/>
<path d="M0 0 C-3.465 2.97 -3.465 2.97 -7 6 C-7 4.02 -7 2.04 -7 0 C-3.98968256 -0.93423645 -3.13349732 -1.04449911 0 0 Z " fill="#DCBA5D" transform="translate(306,301)"/>
<path d="M0 0 C0.66 0 1.32 0 2 0 C2 1.65 2 3.3 2 5 C1.34 5 0.68 5 0 5 C0 5.66 0 6.32 0 7 C-1.98 7.33 -3.96 7.66 -6 8 C-4.73046875 6.50260417 -3.4609375 5.00520833 -2.19140625 3.5078125 C-0.9121848 1.99405921 -0.9121848 1.99405921 0 0 Z " fill="#DE9D06" transform="translate(234,291)"/>
<path d="M0 0 C-1.62249941 0.83819158 -3.24808497 1.6704116 -4.875 2.5 C-6.23238281 3.19609375 -6.23238281 3.19609375 -7.6171875 3.90625 C-10 5 -10 5 -12 5 C-11.67 4.01 -11.34 3.02 -11 2 C-10.01 2 -9.02 2 -8 2 C-8 1.34 -8 0.68 -8 0 C-4.90645403 -0.99435406 -3.09720845 -0.87840996 0 0 Z " fill="#D6AC4E" transform="translate(440,201)"/>
<path d="M0 0 C0 0.66 0 1.32 0 2 C-1.093125 2.309375 -2.18625 2.61875 -3.3125 2.9375 C-5.55407994 3.58337897 -7.7869351 4.2623117 -10 5 C-7.62417533 -0.26075462 -5.61350876 -0.1220328 0 0 Z " fill="#D2AB4A" transform="translate(145,295)"/>
<path d="M0 0 C1.4552777 2.9105554 0.63516661 4.95849052 0.0625 8.125 C-0.13214844 9.22070312 -0.32679688 10.31640625 -0.52734375 11.4453125 C-0.68332031 12.28835938 -0.83929688 13.13140625 -1 14 C-3.29480503 9.9840912 -2.98836818 7.53002084 -2 3 C-1.34 2.01 -0.68 1.02 0 0 Z " fill="#D7B756" transform="translate(217,281)"/>
<path d="M0 0 C1.65 0 3.3 0 5 0 C4.01 1.485 4.01 1.485 3 3 C2.34 3 1.68 3 1 3 C1 3.66 1 4.32 1 5 C-1.475 4.01 -1.475 4.01 -4 3 C-3.67 2.34 -3.34 1.68 -3 1 C-2.01 1.33 -1.02 1.66 0 2 C0 1.34 0 0.68 0 0 Z " fill="#DBAA39" transform="translate(358,247)"/>
<path d="M0 0 C2.475 0.99 2.475 0.99 5 2 C3 4 3 4 0.90625 4.265625 C0.1121875 4.26046875 -0.681875 4.2553125 -1.5 4.25 C-2.2940625 4.25515625 -3.088125 4.2603125 -3.90625 4.265625 C-6 4 -6 4 -8 2 C-5.36 2.33 -2.72 2.66 0 3 C0 2.01 0 1.02 0 0 Z " fill="#D8AC3F" transform="translate(194,244)"/>
<path d="M0 0 C-2.31 1.65 -4.62 3.3 -7 5 C-7.66 3.35 -8.32 1.7 -9 0 C-3.375 -1.125 -3.375 -1.125 0 0 Z " fill="#D7AD40" transform="translate(371,242)"/>
<path d="M0 0 C1.67542976 0.28604898 3.34385343 0.61781233 5 1 C3.6875 3.5 3.6875 3.5 2 6 C1.01 6 0.02 6 -1 6 C-1.042721 4.33388095 -1.04063832 2.66617115 -1 1 C-0.67 0.67 -0.34 0.34 0 0 Z " fill="#DDA116" transform="translate(220,278)"/>
<path d="M0 0 C1.2065625 0.0309375 1.2065625 0.0309375 2.4375 0.0625 C-2.3125 4.9375 -2.3125 4.9375 -4.5625 6.0625 C-3.48963568 0.08511307 -3.48963568 0.08511307 0 0 Z " fill="#D5A937" transform="translate(343.5625,260.9375)"/>
<path d="M0 0 C2.64 0 5.28 0 8 0 C8 0.66 8 1.32 8 2 C1.25 3.125 1.25 3.125 -1 2 C-0.67 1.34 -0.34 0.68 0 0 Z " fill="#CD9925" transform="translate(147,235)"/>
<path d="M0 0 C0.66 0 1.32 0 2 0 C2.17835515 4.54805635 1.99785435 7.8794254 0 12 C-0.33 12 -0.66 12 -1 12 C-0.67 8.04 -0.34 4.08 0 0 Z " fill="#D7AF46" transform="translate(224,199)"/>
<path d="M0 0 C0.66 0 1.32 0 2 0 C2.66 3.3 3.32 6.6 4 10 C3.34 10 2.68 10 2 10 C-1.07692308 4.58461538 -1.07692308 4.58461538 -0.6875 1.625 C-0.460625 1.08875 -0.23375 0.5525 0 0 Z " fill="#CFA63C" transform="translate(134,300)"/>
<path d="M0 0 C0.66 0 1.32 0 2 0 C2.33 1.32 2.66 2.64 3 4 C2.01 4 1.02 4 0 4 C0 4.66 0 5.32 0 6 C-0.99 6 -1.98 6 -3 6 C-2.42655063 3.13275314 -2.1385485 2.1385485 0 0 Z " fill="#D7A101" transform="translate(79,283)"/>
<path d="M0 0 C2.97 0.495 2.97 0.495 6 1 C6 1.66 6 2.32 6 3 C6.66 3 7.32 3 8 3 C8 3.66 8 4.32 8 5 C5.36 4.34 2.72 3.68 0 3 C0 2.01 0 1.02 0 0 Z " fill="#CFA427" transform="translate(177,265)"/>
<path d="M0 0 C1.32 0.33 2.64 0.66 4 1 C4.33 2.98 4.66 4.96 5 7 C4.01 7.495 4.01 7.495 3 8 C0 2.25 0 2.25 0 0 Z " fill="#D6A937" transform="translate(236,181)"/>
<path d="M0 0 C3.93846154 3.32307692 3.93846154 3.32307692 4.25 6.75 C4.1675 7.4925 4.085 8.235 4 9 C3.01 9.495 3.01 9.495 2 10 C2 8.02 2 6.04 2 4 C1.34 4 0.68 4 0 4 C0 2.68 0 1.36 0 0 Z " fill="#D1AA54" transform="translate(135,264)"/>
<path d="M0 0 C1.32 0.33 2.64 0.66 4 1 C2.625 2.5 2.625 2.5 1 4 C0.34 4 -0.32 4 -1 4 C-1 4.66 -1 5.32 -1 6 C-1.66 6 -2.32 6 -3 6 C-3 4.68 -3 3.36 -3 2 C-2.01 2 -1.02 2 0 2 C0 1.34 0 0.68 0 0 Z " fill="#D8AC46" transform="translate(335,267)"/>
<path d="M0 0 C1.98 0 3.96 0 6 0 C5.34 1.32 4.68 2.64 4 4 C2.68 4 1.36 4 0 4 C0 2.68 0 1.36 0 0 Z " fill="#D3A301" transform="translate(96,258)"/>
<path d="M0 0 C2.31 0.66 4.62 1.32 7 2 C7 2.99 7 3.98 7 5 C5.35 5.33 3.7 5.66 2 6 C2.33 5.01 2.66 4.02 3 3 C2.01 2.67 1.02 2.34 0 2 C0 1.34 0 0.68 0 0 Z " fill="#D0A756" transform="translate(473,179)"/>
<path d="M0 0 C4.76058041 5.52841596 4.76058041 5.52841596 5 9 C4.34 9.66 3.68 10.32 3 11 C0 4.5 0 4.5 0 0 Z " fill="#D9B153" transform="translate(274,164)"/>
<path d="M0 0 C2.31 0.33 4.62 0.66 7 1 C7 2.32 7 3.64 7 5 C6.34 4.34 5.68 3.68 5 3 C3.01178687 2.60235737 1.01055661 2.26224651 -1 2 C-0.67 1.34 -0.34 0.68 0 0 Z " fill="#D2AB51" transform="translate(188,294)"/>
<path d="M0 0 C0 3.41099168 -0.49145406 6.63088314 -1 10 C-1.33 10 -1.66 10 -2 10 C-2.66 7.36 -3.32 4.72 -4 2 C-2.68 1.34 -1.36 0.68 0 0 Z " fill="#D6B65F" transform="translate(74,280)"/>
<path d="M0 0 C1.65 0 3.3 0 5 0 C4.67 0.66 4.34 1.32 4 2 C3.34 2 2.68 2 2 2 C2 2.66 2 3.32 2 4 C1.01 4.33 0.02 4.66 -1 5 C-1.99 4.01 -2.98 3.02 -4 2 C-2.68 2.33 -1.36 2.66 0 3 C0 2.01 0 1.02 0 0 Z " fill="#D6AE38" transform="translate(347,256)"/>
<path d="M0 0 C-2.93828597 2.50298434 -5.17902761 3.46930939 -9 4 C-9 3.01 -9 2.02 -9 1 C-5.8035914 -0.06546953 -3.34252724 -0.07427838 0 0 Z " fill="#D0A02B" transform="translate(194,226)"/>
<path d="M0 0 C2.18975773 3.28463659 2.99806563 6.20696275 4 10 C3.01 9.67 2.02 9.34 1 9 C-0.4783226 6.04335481 -0.06032783 3.25770263 0 0 Z " fill="#DBB35D" transform="translate(283,181)"/>
<path d="M0 0 C0.33 0 0.66 0 1 0 C0.56179109 4.55737263 0.14958831 7.57653445 -3 11 C-3 9.02 -3 7.04 -3 5 C-2.34 5 -1.68 5 -1 5 C-0.67 3.35 -0.34 1.7 0 0 Z " fill="#D4A845" transform="translate(368,144)"/>
<path d="M0 0 C0 1.65 0 3.3 0 5 C-1.98 4.34 -3.96 3.68 -6 3 C-6 2.34 -6 1.68 -6 1 C-4 0 -4 0 0 0 Z " fill="#D1A547" transform="translate(200,139)"/>
<path d="M0 0 C2.475 0.495 2.475 0.495 5 1 C3.02 3.97 3.02 3.97 1 7 C0 4 0 4 0 0 Z " fill="#D8A937" transform="translate(274,329)"/>
<path d="M0 0 C0.625 1.8125 0.625 1.8125 1 4 C0.01 5.485 0.01 5.485 -1 7 C-1.99 7 -2.98 7 -4 7 C-4 4 -4 4 -2 1.8125 C-1.34 1.214375 -0.68 0.61625 0 0 Z " fill="#DA9F03" transform="translate(189,296)"/>
<path d="M0 0 C0.99 0 1.98 0 3 0 C3 0.99 3 1.98 3 3 C0.03 3.66 -2.94 4.32 -6 5 C-4 3 -4 3 -1 2 C-0.67 1.34 -0.34 0.68 0 0 Z " fill="#D2AA3E" transform="translate(79,287)"/>
<path d="M0 0 C0.66 0.33 1.32 0.66 2 1 C1.67 2.32 1.34 3.64 1 5 C0.34 5 -0.32 5 -1 5 C-1 5.66 -1 6.32 -1 7 C-1.66 7 -2.32 7 -3 7 C-3 5.68 -3 4.36 -3 3 C-2.34 3 -1.68 3 -1 3 C-0.67 2.01 -0.34 1.02 0 0 Z " fill="#D49B0E" transform="translate(166,267)"/>
<path d="M0 0 C0.33 0 0.66 0 1 0 C1.33 3.3 1.66 6.6 2 10 C1.01 10.33 0.02 10.66 -1 11 C-0.67 7.37 -0.34 3.74 0 0 Z " fill="#D69B13" transform="translate(293,230)"/>
</svg>
